<svg xmlns="http://www.w3.org/2000/svg" width="1400" height="900" viewBox="0 0 1400 900">
<defs>
  <linearGradient id="bg" x1="0" y1="0" x2="1" y2="1"><stop stop-color="#0a0a08"/><stop offset="1" stop-color="#1a100b"/></linearGradient>
  <linearGradient id="shine" x1="0" y1="0" x2="1" y2="1"><stop stop-color="#ffb04c" stop-opacity=".24"/><stop offset="1" stop-color="#ffb04c" stop-opacity="0"/></linearGradient>
</defs>
<rect width="1400" height="900" fill="url(#bg)"/>
<rect x="735" y="110" width="560" height="620" rx="34" fill="#0d100d" stroke="#ffb04c" stroke-opacity=".65"/>
<rect x="770" y="145" width="490" height="550" rx="26" fill="#101410"/>
<rect x="800" y="182" width="430" height="84" rx="18" fill="#171d17"/>
<rect x="800" y="286" width="430" height="320" rx="24" fill="url(#shine)"/>
<circle cx="940" cy="352" r="84" fill="#b9846b"/><rect x="888" y="336" width="36" height="18" rx="9" fill="#111"/><rect x="956" y="336" width="36" height="18" rx="9" fill="#111"/><rect x="924" y="343" width="32" height="4" rx="2" fill="#111"/><rect x="848" y="438" width="184" height="122" rx="28" fill="#171a17"/>
<text x="815" y="236" fill="#f7f8f6" font-family="Arial" font-size="62" font-weight="700">PEOPL'EMIK</text>
<text x="818" y="642" fill="#ffb04c" font-family="Arial" font-size="28" font-weight="700" letter-spacing="3">DEBATS & BUZZ</text>
<path d="M815 664h250" stroke="#ffb04c" stroke-width="8" stroke-linecap="round" opacity=".8"/>
</svg>