<svg xmlns="http://www.w3.org/2000/svg" width="1400" height="900" viewBox="0 0 1400 900">
<defs><linearGradient id="bg" x1="0" y1="0" x2="1" y2="1"><stop stop-color="#09110b"/><stop offset="1" stop-color="#0a130d"/></linearGradient><linearGradient id="card" x1="0" y1="0" x2="1" y2="1"><stop stop-color="#192118"/><stop offset="1" stop-color="#0f150f"/></linearGradient><radialGradient id="glow"><stop stop-color="#b7ff00" stop-opacity=".35"/><stop offset="1" stop-color="#b7ff00" stop-opacity="0"/></radialGradient></defs>
<rect width="1400" height="900" fill="url(#bg)"/><circle cx="1090" cy="470" r="360" fill="url(#glow)"/>
<rect x="690" y="130" width="600" height="510" rx="34" fill="#0d100d" stroke="#6eff00" stroke-opacity=".5"/>
<rect x="730" y="170" width="520" height="430" rx="28" fill="url(#card)"/>
<rect x="760" y="205" width="220" height="310" rx="22" fill="#2d352c"/>
<rect x="1000" y="205" width="220" height="145" rx="18" fill="#2a3129"/>
<rect x="1000" y="370" width="220" height="145" rx="18" fill="#1d261d"/>
<circle cx="870" cy="320" r="68" fill="#725437"/><rect x="808" y="398" width="124" height="92" rx="18" fill="#111611"/>
<circle cx="1110" cy="275" r="42" fill="#534438"/><circle cx="1110" cy="440" r="42" fill="#6b503d"/>
<path d="M784 560h220" stroke="#b7ff00" stroke-width="8" stroke-opacity=".55"/><path d="M1036 545h148" stroke="#ffffff" stroke-opacity=".28" stroke-width="8"/><path d="M1036 566h110" stroke="#ffffff" stroke-opacity=".18" stroke-width="8"/>
</svg>